<svg xmlns="http://www.w3.org/2000/svg" xmlns:xlink="http://www.w3.org/1999/xlink" width="2000" zoomAndPan="magnify" viewBox="0 0 1500 374.999991" height="500" preserveAspectRatio="xMidYMid meet" version="1.0"><defs><g/><clipPath id="cb19cc26f6"><path d="M 80.3125 36.34375 L 375 36.34375 L 375 375 L 80.3125 375 Z M 80.3125 36.34375 " clip-rule="nonzero"/></clipPath></defs><g clip-path="url(#cb19cc26f6)"><path fill="#80cc2b" d="M 306.75 122.121094 C 327.871094 75.269531 289.898438 36.558594 289.894531 36.558594 C 340.042969 113.222656 232.242188 192.40625 140.394531 246.171875 C 102.820312 268.164062 86.941406 298.457031 80.609375 324.144531 C 80.609375 324.144531 96.988281 283.6875 171.164062 246.171875 C 247.390625 207.613281 282.710938 193.28125 300.019531 136.546875 C 300.019531 136.546875 299.699219 192.320312 232.386719 225.976562 C 224.148438 230.09375 216.054688 233.753906 208.472656 237.652344 C 124.6875 280.785156 122.121094 316.445312 122.121094 375.023438 L 252.898438 375.023438 L 252.898438 252.898438 L 375.023438 252.898438 L 375.023438 122.121094 L 306.75 122.121094 " fill-opacity="1" fill-rule="nonzero"/></g><path fill="#4c9ccd" d="M 68.273438 252.898438 C 47.152344 299.757812 85.125 338.464844 85.125 338.464844 C 34.980469 261.800781 142.78125 182.617188 234.628906 128.855469 C 272.207031 106.859375 288.082031 76.570312 294.414062 50.882812 C 294.414062 50.882812 278.035156 91.335938 203.859375 128.855469 C 127.632812 167.410156 92.3125 181.742188 75.003906 238.476562 C 75.003906 238.476562 75.324219 182.703125 142.636719 149.050781 C 150.875 144.929688 158.96875 141.273438 166.546875 137.371094 C 250.335938 94.238281 252.898438 58.578125 252.898438 0 L 122.121094 0 L 122.121094 122.121094 L 0 122.121094 L 0 252.898438 L 68.273438 252.898438 " fill-opacity="1" fill-rule="nonzero"/><g fill="#4c9ccd" fill-opacity="1"><g transform="translate(401.233986, 158.291944)"><g><path d="M 59.65625 -156.796875 L 59.65625 -153.78125 C 57.070312 -153.78125 55.382812 -153.3125 54.59375 -152.375 C 53.800781 -151.445312 53.40625 -149.757812 53.40625 -147.3125 L 53.40625 -95.625 L 150.328125 -95.625 L 150.328125 -147.3125 C 150.328125 -149.757812 149.96875 -151.445312 149.25 -152.375 C 148.53125 -153.3125 146.738281 -153.78125 143.875 -153.78125 L 143.875 -156.796875 L 186.953125 -156.796875 L 186.953125 -153.78125 C 184.503906 -153.78125 182.882812 -153.3125 182.09375 -152.375 C 181.3125 -151.445312 180.921875 -149.757812 180.921875 -147.3125 L 180.921875 -9.46875 C 180.921875 -7.03125 181.3125 -5.34375 182.09375 -4.40625 C 182.882812 -3.476562 184.503906 -3.015625 186.953125 -3.015625 L 186.953125 0 L 143.875 0 L 143.875 -3.015625 C 146.601562 -3.015625 148.359375 -3.441406 149.140625 -4.296875 C 149.929688 -5.160156 150.328125 -6.816406 150.328125 -9.265625 L 150.328125 -68.484375 L 53.40625 -68.484375 L 53.40625 -9.46875 C 53.40625 -7.175781 53.765625 -5.523438 54.484375 -4.515625 C 55.203125 -3.515625 56.925781 -3.015625 59.65625 -3.015625 L 59.65625 0 L 16.375 0 L 16.375 -3.015625 C 19.09375 -3.015625 20.847656 -3.476562 21.640625 -4.40625 C 22.429688 -5.34375 22.828125 -7.03125 22.828125 -9.46875 L 22.828125 -147.3125 C 22.828125 -149.757812 22.46875 -151.445312 21.75 -152.375 C 21.03125 -153.3125 19.238281 -153.78125 16.375 -153.78125 L 16.375 -156.796875 Z M 59.65625 -156.796875 "/></g></g></g><g fill="#4c9ccd" fill-opacity="1"><g transform="translate(604.534855, 158.291944)"><g><path d="M 166.484375 -125.78125 L 163.46875 -125.78125 C 163.46875 -129.507812 161.097656 -131.375 156.359375 -131.375 L 52.546875 -131.375 L 52.546875 -93.046875 L 120.171875 -93.046875 C 122.472656 -93.046875 124.269531 -93.4375 125.5625 -94.21875 C 126.851562 -95.007812 127.5 -96.484375 127.5 -98.640625 L 130.515625 -98.640625 L 130.515625 -62.453125 L 127.5 -62.453125 C 127.5 -65.898438 125.128906 -67.625 120.390625 -67.625 L 52.546875 -67.625 L 52.546875 -25.421875 L 158.078125 -25.421875 C 162.960938 -25.421875 165.40625 -27.140625 165.40625 -30.578125 L 168.421875 -30.578125 L 168.421875 4.734375 L 165.40625 4.734375 C 165.40625 1.578125 162.960938 0 158.078125 0 L 16.375 0 L 16.375 -3.015625 C 18.664062 -3.015625 20.171875 -3.441406 20.890625 -4.296875 C 21.609375 -5.160156 21.96875 -6.816406 21.96875 -9.265625 L 21.96875 -147.3125 C 21.96875 -149.613281 21.644531 -151.265625 21 -152.265625 C 20.351562 -153.273438 18.8125 -153.78125 16.375 -153.78125 L 16.375 -156.796875 L 156.140625 -156.796875 C 161.023438 -156.796875 163.46875 -158.375 163.46875 -161.53125 L 166.484375 -161.53125 Z M 166.484375 -125.78125 "/></g></g></g><g fill="#4c9ccd" fill-opacity="1"><g transform="translate(783.930628, 158.291944)"><g><path d="M 66.546875 -65.90625 L 117.8125 -65.90625 L 91.96875 -122.328125 Z M 117.375 -156.796875 L 117.375 -153.78125 C 114.363281 -153.34375 112.859375 -152.265625 112.859375 -150.546875 C 112.859375 -149.398438 113.21875 -148.144531 113.9375 -146.78125 C 114.65625 -145.414062 115.375 -143.867188 116.09375 -142.140625 L 177.25 -11.203125 C 178.6875 -8.179688 179.832031 -6.0625 180.6875 -4.84375 C 181.550781 -3.625 183.207031 -3.015625 185.65625 -3.015625 L 185.65625 0 L 142.796875 0 L 142.796875 -3.015625 C 145.378906 -3.015625 146.671875 -3.734375 146.671875 -5.171875 C 146.671875 -5.890625 146.382812 -6.960938 145.8125 -8.390625 C 145.238281 -9.828125 144.445312 -11.550781 143.4375 -13.5625 L 130.296875 -41.359375 L 56.421875 -41.359375 C 53.265625 -34.316406 50.679688 -28.640625 48.671875 -24.328125 C 46.660156 -20.023438 45.082031 -16.726562 43.9375 -14.4375 C 42.925781 -12.425781 42.132812 -10.738281 41.5625 -9.375 C 40.988281 -8.007812 40.703125 -6.96875 40.703125 -6.25 C 40.703125 -4.382812 41.78125 -3.304688 43.9375 -3.015625 L 43.9375 0 L 5.59375 0 L 5.59375 -3.015625 C 7.894531 -3.160156 9.507812 -3.84375 10.4375 -5.0625 C 11.375 -6.28125 12.488281 -8.328125 13.78125 -11.203125 L 72.578125 -143.4375 C 73.148438 -144.582031 73.6875 -145.726562 74.1875 -146.875 C 74.695312 -148.03125 74.953125 -149.039062 74.953125 -149.90625 C 74.953125 -152.050781 73.441406 -153.34375 70.421875 -153.78125 L 70.421875 -156.796875 Z M 117.375 -156.796875 "/></g></g></g><g fill="#4c9ccd" fill-opacity="1"><g transform="translate(975.38667, 158.291944)"><g><path d="M 59.875 -156.796875 L 59.875 -153.78125 C 57 -153.78125 55.203125 -153.273438 54.484375 -152.265625 C 53.765625 -151.265625 53.40625 -149.613281 53.40625 -147.3125 L 53.40625 -25.421875 L 152.921875 -25.421875 C 157.796875 -25.421875 160.234375 -27.140625 160.234375 -30.578125 L 163.25 -30.578125 L 163.25 4.734375 L 160.234375 4.734375 C 160.234375 1.578125 157.796875 0 152.921875 0 L 17.234375 0 L 17.234375 -3.015625 C 19.671875 -3.015625 21.210938 -3.476562 21.859375 -4.40625 C 22.503906 -5.34375 22.828125 -7.03125 22.828125 -9.46875 L 22.828125 -147.3125 C 22.828125 -149.613281 22.503906 -151.265625 21.859375 -152.265625 C 21.210938 -153.273438 19.671875 -153.78125 17.234375 -153.78125 L 17.234375 -156.796875 Z M 59.875 -156.796875 "/></g></g></g><g fill="#4c9ccd" fill-opacity="1"><g transform="translate(1142.937581, 158.291944)"><g><path d="M 6.25 -161.96875 L 9.265625 -161.96875 C 9.265625 -158.519531 11.703125 -156.796875 16.578125 -156.796875 L 151.1875 -156.796875 C 155.925781 -156.796875 158.296875 -158.519531 158.296875 -161.96875 L 161.3125 -161.96875 L 161.3125 -126 L 158.296875 -126 C 158.296875 -129.582031 155.859375 -131.375 150.984375 -131.375 L 99.078125 -131.375 L 99.078125 -9.046875 C 99.078125 -6.890625 99.503906 -5.34375 100.359375 -4.40625 C 101.222656 -3.476562 103.019531 -3.015625 105.75 -3.015625 L 105.75 0 L 62.03125 0 L 62.03125 -3.015625 C 64.757812 -3.015625 66.515625 -3.476562 67.296875 -4.40625 C 68.085938 -5.34375 68.484375 -6.890625 68.484375 -9.046875 L 68.484375 -131.375 L 16.578125 -131.375 C 11.703125 -131.375 9.265625 -129.582031 9.265625 -126 L 6.25 -126 Z M 6.25 -161.96875 "/></g></g></g><g fill="#4c9ccd" fill-opacity="1"><g transform="translate(1310.488492, 158.291944)"><g><path d="M 59.65625 -156.796875 L 59.65625 -153.78125 C 57.070312 -153.78125 55.382812 -153.3125 54.59375 -152.375 C 53.800781 -151.445312 53.40625 -149.757812 53.40625 -147.3125 L 53.40625 -95.625 L 150.328125 -95.625 L 150.328125 -147.3125 C 150.328125 -149.757812 149.96875 -151.445312 149.25 -152.375 C 148.53125 -153.3125 146.738281 -153.78125 143.875 -153.78125 L 143.875 -156.796875 L 186.953125 -156.796875 L 186.953125 -153.78125 C 184.503906 -153.78125 182.882812 -153.3125 182.09375 -152.375 C 181.3125 -151.445312 180.921875 -149.757812 180.921875 -147.3125 L 180.921875 -9.46875 C 180.921875 -7.03125 181.3125 -5.34375 182.09375 -4.40625 C 182.882812 -3.476562 184.503906 -3.015625 186.953125 -3.015625 L 186.953125 0 L 143.875 0 L 143.875 -3.015625 C 146.601562 -3.015625 148.359375 -3.441406 149.140625 -4.296875 C 149.929688 -5.160156 150.328125 -6.816406 150.328125 -9.265625 L 150.328125 -68.484375 L 53.40625 -68.484375 L 53.40625 -9.46875 C 53.40625 -7.175781 53.765625 -5.523438 54.484375 -4.515625 C 55.203125 -3.515625 56.925781 -3.015625 59.65625 -3.015625 L 59.65625 0 L 16.375 0 L 16.375 -3.015625 C 19.09375 -3.015625 20.847656 -3.476562 21.640625 -4.40625 C 22.429688 -5.34375 22.828125 -7.03125 22.828125 -9.46875 L 22.828125 -147.3125 C 22.828125 -149.757812 22.46875 -151.445312 21.75 -152.375 C 21.03125 -153.3125 19.238281 -153.78125 16.375 -153.78125 L 16.375 -156.796875 Z M 59.65625 -156.796875 "/></g></g></g><g fill="#4c9ccd" fill-opacity="1"><g transform="translate(538.8457, 373.207449)"><g><path d="M 119.75 -93.046875 C 127.644531 -93.046875 133.171875 -94.375 136.328125 -97.03125 C 139.492188 -99.6875 141.078125 -104.742188 141.078125 -112.203125 C 141.078125 -119.671875 139.492188 -124.734375 136.328125 -127.390625 C 133.171875 -130.046875 127.71875 -131.375 119.96875 -131.375 L 53.84375 -131.375 L 53.84375 -93.046875 Z M 120.828125 -156.796875 C 128.296875 -156.796875 135.148438 -155.894531 141.390625 -154.09375 C 147.640625 -152.300781 153.023438 -149.535156 157.546875 -145.796875 C 162.066406 -142.066406 165.546875 -137.398438 167.984375 -131.796875 C 170.429688 -126.203125 171.65625 -119.671875 171.65625 -112.203125 C 171.65625 -96.703125 167.347656 -85.394531 158.734375 -78.28125 C 150.117188 -71.175781 137.410156 -67.625 120.609375 -67.625 L 53.84375 -67.625 L 53.84375 -9.265625 C 53.84375 -6.960938 54.203125 -5.34375 54.921875 -4.40625 C 55.640625 -3.476562 57.289062 -3.015625 59.875 -3.015625 L 59.875 0 L 17.234375 0 L 17.234375 -3.015625 C 19.671875 -3.015625 21.285156 -3.476562 22.078125 -4.40625 C 22.867188 -5.34375 23.265625 -6.960938 23.265625 -9.265625 L 23.265625 -147.53125 C 23.265625 -149.832031 22.90625 -151.445312 22.1875 -152.375 C 21.46875 -153.3125 19.816406 -153.78125 17.234375 -153.78125 L 17.234375 -156.796875 Z M 120.828125 -156.796875 "/></g></g></g><g fill="#4c9ccd" fill-opacity="1"><g transform="translate(718.24149, 373.207449)"><g><path d="M 42.421875 -78.390625 C 42.421875 -69.492188 43.925781 -61.632812 46.9375 -54.8125 C 49.957031 -47.988281 54.125 -42.242188 59.4375 -37.578125 C 64.75 -32.910156 71.03125 -29.359375 78.28125 -26.921875 C 85.539062 -24.484375 93.332031 -23.265625 101.65625 -23.265625 C 110.414062 -23.265625 118.457031 -24.554688 125.78125 -27.140625 C 133.101562 -29.722656 139.347656 -33.382812 144.515625 -38.125 C 149.679688 -42.863281 153.703125 -48.640625 156.578125 -55.453125 C 159.453125 -62.273438 160.890625 -69.921875 160.890625 -78.390625 C 160.890625 -87.003906 159.414062 -94.722656 156.46875 -101.546875 C 153.53125 -108.367188 149.4375 -114.148438 144.1875 -118.890625 C 138.945312 -123.628906 132.664062 -127.253906 125.34375 -129.765625 C 118.019531 -132.273438 110.050781 -133.53125 101.4375 -133.53125 C 93.257812 -133.53125 85.578125 -132.304688 78.390625 -129.859375 C 71.210938 -127.421875 64.96875 -123.867188 59.65625 -119.203125 C 54.34375 -114.535156 50.140625 -108.753906 47.046875 -101.859375 C 43.960938 -94.972656 42.421875 -87.148438 42.421875 -78.390625 Z M 101.65625 -158.953125 C 114.144531 -158.953125 125.84375 -157.191406 136.75 -153.671875 C 147.664062 -150.148438 157.179688 -144.976562 165.296875 -138.15625 C 173.410156 -131.34375 179.800781 -122.984375 184.46875 -113.078125 C 189.132812 -103.171875 191.46875 -91.828125 191.46875 -79.046875 C 191.46875 -65.253906 188.988281 -53.257812 184.03125 -43.0625 C 179.082031 -32.875 172.515625 -24.441406 164.328125 -17.765625 C 156.148438 -11.085938 146.675781 -6.097656 135.90625 -2.796875 C 125.132812 0.503906 113.929688 2.15625 102.296875 2.15625 C 89.085938 2.15625 76.957031 0.328125 65.90625 -3.328125 C 54.851562 -6.992188 45.304688 -12.269531 37.265625 -19.15625 C 29.222656 -26.050781 22.972656 -34.453125 18.515625 -44.359375 C 14.066406 -54.273438 11.84375 -65.40625 11.84375 -77.75 C 11.84375 -91.25 14.25 -103.054688 19.0625 -113.171875 C 23.875 -123.296875 30.367188 -131.769531 38.546875 -138.59375 C 46.734375 -145.414062 56.242188 -150.515625 67.078125 -153.890625 C 77.921875 -157.265625 89.445312 -158.953125 101.65625 -158.953125 Z M 101.65625 -158.953125 "/></g></g></g><g fill="#4c9ccd" fill-opacity="1"><g transform="translate(921.542337, 373.207449)"><g><path d="M 65.046875 -156.796875 L 65.046875 -153.78125 C 61.742188 -153.78125 59.585938 -153.347656 58.578125 -152.484375 C 57.578125 -151.617188 57.078125 -149.894531 57.078125 -147.3125 L 57.078125 -9.046875 C 57.078125 -6.609375 57.6875 -4.992188 58.90625 -4.203125 C 60.125 -3.410156 62.171875 -3.015625 65.046875 -3.015625 L 65.046875 0 L 18.734375 0 L 18.734375 -3.015625 C 21.609375 -3.015625 23.617188 -3.410156 24.765625 -4.203125 C 25.910156 -4.992188 26.484375 -6.609375 26.484375 -9.046875 L 26.484375 -147.3125 C 26.484375 -149.894531 26.015625 -151.617188 25.078125 -152.484375 C 24.148438 -153.347656 22.035156 -153.78125 18.734375 -153.78125 L 18.734375 -156.796875 Z M 65.046875 -156.796875 "/></g></g></g><g fill="#4c9ccd" fill-opacity="1"><g transform="translate(1005.317792, 373.207449)"><g><path d="M 63.109375 -156.796875 L 63.109375 -153.78125 C 60.523438 -153.78125 58.910156 -153.492188 58.265625 -152.921875 C 57.617188 -152.347656 57.296875 -151.769531 57.296875 -151.1875 C 57.296875 -150.46875 58.082031 -149.320312 59.65625 -147.75 L 153.125 -48.453125 L 153.125 -147.75 C 153.125 -150.039062 152.800781 -151.617188 152.15625 -152.484375 C 151.507812 -153.347656 149.96875 -153.78125 147.53125 -153.78125 L 147.53125 -156.796875 L 186.078125 -156.796875 L 186.078125 -153.78125 C 183.929688 -153.78125 182.425781 -153.3125 181.5625 -152.375 C 180.695312 -151.445312 180.265625 -149.757812 180.265625 -147.3125 L 180.265625 -9.6875 C 180.265625 -7.25 180.660156 -5.523438 181.453125 -4.515625 C 182.242188 -3.515625 183.785156 -3.015625 186.078125 -3.015625 L 186.078125 0 L 146.234375 0 L 146.234375 -3.015625 C 147.390625 -3.015625 148.394531 -3.117188 149.25 -3.328125 C 150.113281 -3.546875 150.546875 -4.015625 150.546875 -4.734375 C 150.546875 -5.597656 150.1875 -6.425781 149.46875 -7.21875 C 148.75 -8.007812 147.816406 -9.050781 146.671875 -10.34375 L 49.53125 -114.578125 L 49.53125 -9.046875 C 49.53125 -7.035156 49.890625 -5.523438 50.609375 -4.515625 C 51.328125 -3.515625 52.90625 -3.015625 55.34375 -3.015625 L 55.34375 0 L 17.234375 0 L 17.234375 -3.015625 C 19.523438 -3.015625 20.957031 -3.476562 21.53125 -4.40625 C 22.113281 -5.34375 22.40625 -6.816406 22.40625 -8.828125 L 22.40625 -147.75 C 22.40625 -150.039062 22.113281 -151.617188 21.53125 -152.484375 C 20.957031 -153.347656 19.523438 -153.78125 17.234375 -153.78125 L 17.234375 -156.796875 Z M 63.109375 -156.796875 "/></g></g></g><g fill="#4c9ccd" fill-opacity="1"><g transform="translate(1208.618671, 373.207449)"><g><path d="M 6.25 -161.96875 L 9.265625 -161.96875 C 9.265625 -158.519531 11.703125 -156.796875 16.578125 -156.796875 L 151.1875 -156.796875 C 155.925781 -156.796875 158.296875 -158.519531 158.296875 -161.96875 L 161.3125 -161.96875 L 161.3125 -126 L 158.296875 -126 C 158.296875 -129.582031 155.859375 -131.375 150.984375 -131.375 L 99.078125 -131.375 L 99.078125 -9.046875 C 99.078125 -6.890625 99.503906 -5.34375 100.359375 -4.40625 C 101.222656 -3.476562 103.019531 -3.015625 105.75 -3.015625 L 105.75 0 L 62.03125 0 L 62.03125 -3.015625 C 64.757812 -3.015625 66.515625 -3.476562 67.296875 -4.40625 C 68.085938 -5.34375 68.484375 -6.890625 68.484375 -9.046875 L 68.484375 -131.375 L 16.578125 -131.375 C 11.703125 -131.375 9.265625 -129.582031 9.265625 -126 L 6.25 -126 Z M 6.25 -161.96875 "/></g></g></g></svg>